<svg class="diagram-root" style="background: #f5f6f6" xmlns="http://www.w3.org/2000/svg" xmlns:xlink="http://www.w3.org/1999/xlink"><style>.diagram-root { font-family: "Helvetica Neue", sans-serif; font-size: 12px; } .t { overflow: visible; } .t-bg { y: 40; fill: #fff;   } .th { fill: #005aa0;   } .tht { fill: #fff; font-size: 14px;  } .tf { fill: #323c46; overflow: visible; } .tf.pk { fill: #005aa0; font-weight: bold; } .tf.fk { font-weight: bold; } .ty { fill: #adb1b5; font-weight: normal; text-anchor: end; } .r { fill: transparent; stroke: #c3c3c3; stroke-width: 1; } .l { stroke: 1; } .i { fill: #c2c7ce; stroke: #c2c7ce; } .i.ix { fill: #afb3b6; stroke: #000; } .fa { fill: transparent; overflow: visible; } .fa .bg.hover { fill: #f7f7f7; } .c { cy: 12; r: 4; stroke: #d2d2dc; fill: #d2d2dc; } .hr { fill: transparent; stroke: #323c46; stroke-opacity: 0.035; stroke-width: 13; } .dc { stroke: #fa5a3c; fill: #fa5a3c; } .x { stroke: white; stroke-width: 1; } .hl .th { fill: #1b9bff; } .hl .tht {  } .fhl .bg { fill: #e7f4ff; } .fhls .bg {  } .r.hl { stroke: #1b9bff; } .dim { opacity: 0.25; }</style><g class="drawing-wrapper" transform="translate(-171.33333333333348, -117.77777777777789) scale(1,1)"><g class="rs"><path d="M 410.51 323.111111111111 m -1, 0 a 1,1 0 1,0 2,0 a 1,1 0 1,0 -2,0 M 410.51 323.111111111111 m -0.5, 0 a 0.5,0.5 0 1,0 1,0 a 0.5,0.5 0 1,0 -1,0  M410.51 323.111111111111 L410.51 323.111111111111 422.51 323.111111111111 M416.51 329.111111111111 L416.51 329.111111111111 416.51 317.111111111111 M422.51 323.111111111111 Q 451.52 323.111111111111, 480.53 263.94 T 538.5555555555545 204.77777777777789 M 550.5555555555545 204.77777777777789 m -1, 0 a 1,1 0 1,0 2,0 a 1,1 0 1,0 -2,0 M 550.5555555555545 204.77777777777789 m -0.5, 0 a 0.5,0.5 0 1,0 1,0 a 0.5,0.5 0 1,0 -1,0  M550.5555555555545 204.77777777777789 L550.5555555555545 204.77777777777789 538.5555555555545 204.77777777777789 M544.5555555555545 210.77777777777789 L544.5555555555545 210.77777777777789 544.5555555555545 198.77777777777789" id="h184283748" class="r"></path><path d="M 410.51 598.111111111111 m -1, 0 a 1,1 0 1,0 2,0 a 1,1 0 1,0 -2,0 M 410.51 598.111111111111 m -0.5, 0 a 0.5,0.5 0 1,0 1,0 a 0.5,0.5 0 1,0 -1,0  M410.51 598.111111111111 L410.51 598.111111111111 422.51 598.111111111111 M 410.51 604.111111111111 m -1, 0 a 1,1 0 1,0 2,0 a 1,1 0 1,0 -2,0 M 410.51 604.111111111111 m -0.5, 0 a 0.5,0.5 0 1,0 1,0 a 0.5,0.5 0 1,0 -1,0  M410.51 604.111111111111 L410.51 604.111111111111 417.51 598.111111111111 410.51 592.111111111111 M 410.51 592.111111111111 m -1, 0 a 1,1 0 1,0 2,0 a 1,1 0 1,0 -2,0 M 410.51 592.111111111111 m -0.5, 0 a 0.5,0.5 0 1,0 1,0 a 0.5,0.5 0 1,0 -1,0  M422.51 598.111111111111 Q 454.16 598.111111111111, 485.81 522 T 549.1111111111112 445.8888888888891 M 561.1111111111112 445.8888888888891 m -1, 0 a 1,1 0 1,0 2,0 a 1,1 0 1,0 -2,0 M 561.1111111111112 445.8888888888891 m -0.5, 0 a 0.5,0.5 0 1,0 1,0 a 0.5,0.5 0 1,0 -1,0  M561.1111111111112 445.8888888888891 L561.1111111111112 445.8888888888891 549.1111111111112 445.8888888888891 M555.1111111111112 451.8888888888891 L555.1111111111112 451.8888888888891 555.1111111111112 439.8888888888891" id="h2405255031" class="r"></path><path d="M 410.51 623.111111111111 m -1, 0 a 1,1 0 1,0 2,0 a 1,1 0 1,0 -2,0 M 410.51 623.111111111111 m -0.5, 0 a 0.5,0.5 0 1,0 1,0 a 0.5,0.5 0 1,0 -1,0  M410.51 623.111111111111 L410.51 623.111111111111 422.51 623.111111111111 M 410.51 629.111111111111 m -1, 0 a 1,1 0 1,0 2,0 a 1,1 0 1,0 -2,0 M 410.51 629.111111111111 m -0.5, 0 a 0.5,0.5 0 1,0 1,0 a 0.5,0.5 0 1,0 -1,0  M410.51 629.111111111111 L410.51 629.111111111111 417.51 623.111111111111 410.51 617.111111111111 M 410.51 617.111111111111 m -1, 0 a 1,1 0 1,0 2,0 a 1,1 0 1,0 -2,0 M 410.51 617.111111111111 m -0.5, 0 a 0.5,0.5 0 1,0 1,0 a 0.5,0.5 0 1,0 -1,0  M422.51 623.111111111111 Q 441.52 623.111111111111, 460.53 647.83 T 498.55555555555725 672.5555555555557 M 510.55555555555725 672.5555555555557 m -1, 0 a 1,1 0 1,0 2,0 a 1,1 0 1,0 -2,0 M 510.55555555555725 672.5555555555557 m -0.5, 0 a 0.5,0.5 0 1,0 1,0 a 0.5,0.5 0 1,0 -1,0  M510.55555555555725 672.5555555555557 L510.55555555555725 672.5555555555557 498.55555555555725 672.5555555555557 M504.55555555555725 678.5555555555557 L504.55555555555725 678.5555555555557 504.55555555555725 666.5555555555557" id="h734363672" class="r"></path></g><g class="hrs"></g><g class="ts"><svg width="217.18" height="400" x="193.33333333333348" y="241.111111111111" id="h3542347218" class="t"><rect height="40" width="217.18" class="th"></rect><text x="13" y="25" class="tht">Campaign</text><rect height="360" width="217.18" class="t-bg"></rect><text x="13" y="61" class="tf pk">cf_id<tspan x="204.18" class="ty">INT</tspan></text><path d="M7,14A2,2 0 0,1 5,12A2,2 0 0,1 7,10A2,2 0 0,1 9,12A2,2 0 0,1 7,14M12.65,10C11.83,7.67 9.61,6 7, 6A6, 6 0 0, 0 1, 12A6, 6 0 0, 0 7, 18C9.61, 18 11.83, 16.33 12.65, 14H17V18H21V14H23V10H12.65Z" class="i pk" transform="translate(164.849921875, 48) scale(0.65)"></path><text x="13" y="86" class="tf fk">contact_id<tspan x="204.18" class="ty">INT</tspan></text><text x="13" y="111" class="tf">company_name<tspan x="204.18" class="ty">VARCHAR(255)</tspan></text><text x="13" y="136" class="tf">description<tspan x="204.18" class="ty">VARCHAR(255)</tspan></text><text x="13" y="161" class="tf">goal<tspan x="204.18" class="ty">DECIMAL</tspan></text><text x="13" y="186" class="tf">pledged<tspan x="204.18" class="ty">DECIMAL</tspan></text><text x="13" y="211" class="tf">outcome<tspan x="204.18" class="ty">VARCHAR(255)</tspan></text><text x="13" y="236" class="tf">backers_count<tspan x="204.18" class="ty">INT</tspan></text><text x="13" y="261" class="tf">country<tspan x="204.18" class="ty">CHAR(2)</tspan></text><text x="13" y="286" class="tf">currency<tspan x="204.18" class="ty">CHAR(3)</tspan></text><text x="13" y="311" class="tf">launched_date<tspan x="204.18" class="ty">DATE</tspan></text><text x="13" y="336" class="tf">end_date<tspan x="204.18" class="ty">DATE</tspan></text><text x="13" y="361" class="tf fk">category_id<tspan x="204.18" class="ty">CHAR(4)</tspan></text><text x="13" y="386" class="tf fk">subcategory_id<tspan x="204.18" class="ty">VARCHAR(10)</tspan></text></svg><svg width="187.82" height="150" x="550.5555555555545" y="147.77777777777789" id="h1934035236" class="t"><rect height="40" width="187.82" class="th"></rect><text x="13" y="25" class="tht">Contacts</text><rect height="110" width="187.82" class="t-bg"></rect><text x="13" y="61" class="tf pk">contact_id<tspan x="174.82" class="ty">INT</tspan></text><path d="M7,14A2,2 0 0,1 5,12A2,2 0 0,1 7,10A2,2 0 0,1 9,12A2,2 0 0,1 7,14M12.65,10C11.83,7.67 9.61,6 7, 6A6, 6 0 0, 0 1, 12A6, 6 0 0, 0 7, 18C9.61, 18 11.83, 16.33 12.65, 14H17V18H21V14H23V10H12.65Z" class="i pk" transform="translate(135.489921875, 48) scale(0.65)"></path><text x="13" y="86" class="tf">first_name<tspan x="174.82" class="ty">VARCHAR(255)</tspan></text><text x="13" y="111" class="tf">last_name<tspan x="174.82" class="ty">VARCHAR(255)</tspan></text><text x="13" y="136" class="tf">email<tspan x="174.82" class="ty">VARCHAR(255)</tspan></text></svg><svg width="177.82" height="100" x="561.1111111111112" y="388.8888888888891" id="h1903237708" class="t"><rect height="40" width="177.82" class="th"></rect><text x="13" y="25" class="tht">Category</text><rect height="60" width="177.82" class="t-bg"></rect><text x="13" y="61" class="tf pk">category_id<tspan x="164.82" class="ty">CHAR(4)</tspan></text><path d="M7,14A2,2 0 0,1 5,12A2,2 0 0,1 7,10A2,2 0 0,1 9,12A2,2 0 0,1 7,14M12.65,10C11.83,7.67 9.61,6 7, 6A6, 6 0 0, 0 1, 12A6, 6 0 0, 0 7, 18C9.61, 18 11.83, 16.33 12.65, 14H17V18H21V14H23V10H12.65Z" class="i pk" transform="translate(96.15203125, 48) scale(0.65)"></path><text x="13" y="86" class="tf">category<tspan x="164.82" class="ty">VARCHAR(255)</tspan></text></svg><svg width="226.51" height="100" x="510.55555555555725" y="615.5555555555557" id="h2584823334" class="t"><rect height="40" width="226.51" class="th"></rect><text x="13" y="25" class="tht">Subcategory</text><rect height="60" width="226.51" class="t-bg"></rect><text x="13" y="61" class="tf pk">subcategory_id<tspan x="213.51" class="ty">VARCHAR(10)</tspan></text><path d="M7,14A2,2 0 0,1 5,12A2,2 0 0,1 7,10A2,2 0 0,1 9,12A2,2 0 0,1 7,14M12.65,10C11.83,7.67 9.61,6 7, 6A6, 6 0 0, 0 1, 12A6, 6 0 0, 0 7, 18C9.61, 18 11.83, 16.33 12.65, 14H17V18H21V14H23V10H12.65Z" class="i pk" transform="translate(114.38499999999999, 48) scale(0.65)"></path><text x="13" y="86" class="tf">subcategory<tspan x="213.51" class="ty">VARCHAR(255)</tspan></text></svg></g></g><text class="qdbd-link" x="10" y="20">www.quickdatabasediagrams.com</text></svg>