<svg class="diagram-root" style="background: white" xmlns="http://www.w3.org/2000/svg" xmlns:xlink="http://www.w3.org/1999/xlink"><style>.diagram-root { font-family: "Helvetica Neue", sans-serif; font-size: 12px; } .t { overflow: visible; } .t-bg { y: 40; fill: white; stroke: #323c46; stroke-width: 2; } .th { fill: white; stroke: #323c46; stroke-width: 2; } .tht { fill: #323c46; font-size: 14px; font-weight: bold; } .tf { fill: #323c46; overflow: visible; } .tf.pk { fill: #323c46; font-weight: bold; } .tf.fk { font-weight: bold; } .ty { fill: #323c46; font-weight: normal; text-anchor: end; } .r { fill: transparent; stroke: #4e4e4e; stroke-width: 1; } .l { stroke: 1; } .i { fill: #a0a0a0; stroke: #a0a0a0; } .i.ix { fill: #a0a0a0; stroke: #000; } .fa { fill: transparent; overflow: visible; } .fa .bg.hover { fill: #f3f3f3; } .c { cy: 12; r: 4; stroke: #424242; fill: #424242; } .hr { fill: transparent; stroke: #323c46; stroke-opacity: 0.035; stroke-width: 13; } .dc { stroke: #fa5a3c; fill: #fa5a3c; } .x { stroke: white; stroke-width: 1; } .hl .th { fill: #323c46; } .hl .tht { fill: white; } .fhl .bg { fill: #efefef; } .fhls .bg {  } .r.hl { stroke: black; } .dim { opacity: 0.25; }</style><g class="drawing-wrapper" transform="translate(-171.33333333333348, -117.77777777777789) scale(1,1)"><g class="rs"><path d="M 410.51 323.11 m -1, 0 a 1,1 0 1,0 2,0 a 1,1 0 1,0 -2,0 M 410.51 323.11 m -0.5, 0 a 0.5,0.5 0 1,0 1,0 a 0.5,0.5 0 1,0 -1,0  M410.51 323.11 L410.51 323.11 422.51 323.11 M416.51 329.11 L416.51 329.11 416.51 317.11 M422.51 323.11 Q 451.53 323.11, 480.54 263.95 T 538.56 204.78 M 550.56 204.78 m -1, 0 a 1,1 0 1,0 2,0 a 1,1 0 1,0 -2,0 M 550.56 204.78 m -0.5, 0 a 0.5,0.5 0 1,0 1,0 a 0.5,0.5 0 1,0 -1,0  M550.56 204.78 L550.56 204.78 538.56 204.78 M544.56 210.78 L544.56 210.78 544.56 198.78" id="h184283748" class="r"></path><path d="M 410.51 598.11 m -1, 0 a 1,1 0 1,0 2,0 a 1,1 0 1,0 -2,0 M 410.51 598.11 m -0.5, 0 a 0.5,0.5 0 1,0 1,0 a 0.5,0.5 0 1,0 -1,0  M410.51 598.11 L410.51 598.11 422.51 598.11 M 410.51 604.11 m -1, 0 a 1,1 0 1,0 2,0 a 1,1 0 1,0 -2,0 M 410.51 604.11 m -0.5, 0 a 0.5,0.5 0 1,0 1,0 a 0.5,0.5 0 1,0 -1,0  M410.51 604.11 L410.51 604.11 417.51 598.11 410.51 592.11 M 410.51 592.11 m -1, 0 a 1,1 0 1,0 2,0 a 1,1 0 1,0 -2,0 M 410.51 592.11 m -0.5, 0 a 0.5,0.5 0 1,0 1,0 a 0.5,0.5 0 1,0 -1,0  M422.51 598.11 Q 454.16 598.11, 485.81 522 T 549.11 445.89 M 561.11 445.89 m -1, 0 a 1,1 0 1,0 2,0 a 1,1 0 1,0 -2,0 M 561.11 445.89 m -0.5, 0 a 0.5,0.5 0 1,0 1,0 a 0.5,0.5 0 1,0 -1,0  M561.11 445.89 L561.11 445.89 549.11 445.89 M555.11 451.89 L555.11 451.89 555.11 439.89" id="h2405255031" class="r"></path><path d="M 410.51 623.11 m -1, 0 a 1,1 0 1,0 2,0 a 1,1 0 1,0 -2,0 M 410.51 623.11 m -0.5, 0 a 0.5,0.5 0 1,0 1,0 a 0.5,0.5 0 1,0 -1,0  M410.51 623.11 L410.51 623.11 422.51 623.11 M 410.51 629.11 m -1, 0 a 1,1 0 1,0 2,0 a 1,1 0 1,0 -2,0 M 410.51 629.11 m -0.5, 0 a 0.5,0.5 0 1,0 1,0 a 0.5,0.5 0 1,0 -1,0  M410.51 629.11 L410.51 629.11 417.51 623.11 410.51 617.11 M 410.51 617.11 m -1, 0 a 1,1 0 1,0 2,0 a 1,1 0 1,0 -2,0 M 410.51 617.11 m -0.5, 0 a 0.5,0.5 0 1,0 1,0 a 0.5,0.5 0 1,0 -1,0  M422.51 623.11 Q 441.53 623.11, 460.54 647.84 T 498.56 672.56 M 510.56 672.56 m -1, 0 a 1,1 0 1,0 2,0 a 1,1 0 1,0 -2,0 M 510.56 672.56 m -0.5, 0 a 0.5,0.5 0 1,0 1,0 a 0.5,0.5 0 1,0 -1,0  M510.56 672.56 L510.56 672.56 498.56 672.56 M504.56 678.56 L504.56 678.56 504.56 666.56" id="h734363672" class="r"></path></g><g class="hrs"></g><g class="ts"><svg width="217.18" height="400" x="193.33" y="241.11" id="h3542347218" class="t"><rect height="40" width="217.18" class="th"></rect><text x="13" y="25" class="tht">Campaign</text><rect height="360" width="217.18" class="t-bg"></rect><text x="13" y="61" class="tf pk">cf_id<tspan x="204.18" class="ty">INT</tspan></text><path d="M7,14A2,2 0 0,1 5,12A2,2 0 0,1 7,10A2,2 0 0,1 9,12A2,2 0 0,1 7,14M12.65,10C11.83,7.67 9.61,6 7, 6A6, 6 0 0, 0 1, 12A6, 6 0 0, 0 7, 18C9.61, 18 11.83, 16.33 12.65, 14H17V18H21V14H23V10H12.65Z" class="i pk" transform="translate(164.849921875, 48) scale(0.65)"></path><text x="13" y="86" class="tf fk">contact_id<tspan x="204.18" class="ty">INT</tspan></text><text x="13" y="111" class="tf">company_name<tspan x="204.18" class="ty">VARCHAR(255)</tspan></text><text x="13" y="136" class="tf">description<tspan x="204.18" class="ty">VARCHAR(255)</tspan></text><text x="13" y="161" class="tf">goal<tspan x="204.18" class="ty">DECIMAL</tspan></text><text x="13" y="186" class="tf">pledged<tspan x="204.18" class="ty">DECIMAL</tspan></text><text x="13" y="211" class="tf">outcome<tspan x="204.18" class="ty">VARCHAR(255)</tspan></text><text x="13" y="236" class="tf">backers_count<tspan x="204.18" class="ty">INT</tspan></text><text x="13" y="261" class="tf">country<tspan x="204.18" class="ty">CHAR(2)</tspan></text><text x="13" y="286" class="tf">currency<tspan x="204.18" class="ty">CHAR(3)</tspan></text><text x="13" y="311" class="tf">launched_date<tspan x="204.18" class="ty">DATE</tspan></text><text x="13" y="336" class="tf">end_date<tspan x="204.18" class="ty">DATE</tspan></text><text x="13" y="361" class="tf fk">category_id<tspan x="204.18" class="ty">CHAR(4)</tspan></text><text x="13" y="386" class="tf fk">subcategory_id<tspan x="204.18" class="ty">VARCHAR(10)</tspan></text></svg><svg width="187.82" height="150" x="550.56" y="147.78" id="h1934035236" class="t"><rect height="40" width="187.82" class="th"></rect><text x="13" y="25" class="tht">Contacts</text><rect height="110" width="187.82" class="t-bg"></rect><text x="13" y="61" class="tf pk">contact_id<tspan x="174.82" class="ty">INT</tspan></text><path d="M7,14A2,2 0 0,1 5,12A2,2 0 0,1 7,10A2,2 0 0,1 9,12A2,2 0 0,1 7,14M12.65,10C11.83,7.67 9.61,6 7, 6A6, 6 0 0, 0 1, 12A6, 6 0 0, 0 7, 18C9.61, 18 11.83, 16.33 12.65, 14H17V18H21V14H23V10H12.65Z" class="i pk" transform="translate(135.489921875, 48) scale(0.65)"></path><text x="13" y="86" class="tf">first_name<tspan x="174.82" class="ty">VARCHAR(255)</tspan></text><text x="13" y="111" class="tf">last_name<tspan x="174.82" class="ty">VARCHAR(255)</tspan></text><text x="13" y="136" class="tf">email<tspan x="174.82" class="ty">VARCHAR(255)</tspan></text></svg><svg width="177.82" height="100" x="561.11" y="388.89" id="h1903237708" class="t"><rect height="40" width="177.82" class="th"></rect><text x="13" y="25" class="tht">Category</text><rect height="60" width="177.82" class="t-bg"></rect><text x="13" y="61" class="tf pk">category_id<tspan x="164.82" class="ty">CHAR(4)</tspan></text><path d="M7,14A2,2 0 0,1 5,12A2,2 0 0,1 7,10A2,2 0 0,1 9,12A2,2 0 0,1 7,14M12.65,10C11.83,7.67 9.61,6 7, 6A6, 6 0 0, 0 1, 12A6, 6 0 0, 0 7, 18C9.61, 18 11.83, 16.33 12.65, 14H17V18H21V14H23V10H12.65Z" class="i pk" transform="translate(96.15203125, 48) scale(0.65)"></path><text x="13" y="86" class="tf">category<tspan x="164.82" class="ty">VARCHAR(255)</tspan></text></svg><svg width="226.51" height="100" x="510.56" y="615.56" id="h2584823334" class="t"><rect height="40" width="226.51" class="th"></rect><text x="13" y="25" class="tht">Subcategory</text><rect height="60" width="226.51" class="t-bg"></rect><text x="13" y="61" class="tf pk">subcategory_id<tspan x="213.51" class="ty">VARCHAR(10)</tspan></text><path d="M7,14A2,2 0 0,1 5,12A2,2 0 0,1 7,10A2,2 0 0,1 9,12A2,2 0 0,1 7,14M12.65,10C11.83,7.67 9.61,6 7, 6A6, 6 0 0, 0 1, 12A6, 6 0 0, 0 7, 18C9.61, 18 11.83, 16.33 12.65, 14H17V18H21V14H23V10H12.65Z" class="i pk" transform="translate(114.38499999999999, 48) scale(0.65)"></path><text x="13" y="86" class="tf">subcategory<tspan x="213.51" class="ty">VARCHAR(255)</tspan></text></svg></g></g><text class="qdbd-link" x="10" y="20">www.quickdatabasediagrams.com</text></svg>